<?xml version="1.0" encoding="UTF-8"?>
<svg id="Layer_1" data-name="Layer 1" xmlns="http://www.w3.org/2000/svg" viewBox="0 0 1000 1000">
  <defs>
    <style>
      .cls-1 {
        fill: #0d0e1d;
      }
    </style>
  </defs>
  <g>
    <path class="cls-1" d="M614.98,534.89v.1l21.45-22v-.08l-21.45,21.97Z"/>
    <path class="cls-1" d="M874.13,391.47c-2.36,17.51-18.14,19.93-34.82,19.93-2.45,0-4.88-.06-7.21-.1-2.2-.04-4.33-.09-6.33-.09-.57,0-1.13,0-1.67.01h-.63s-9.46,24.46-9.46,24.46l.35.42c2.64,3.11,5.87,6.17,9.29,9.43,12.19,11.56,24.79,23.53,12.47,39.53-6.31,8.19-15.27,16.27-23.92,24.1-7.75,7-15.76,14.24-21.91,21.56-4.19,2.78-8.17,4.14-12.17,4.14-10.08,0-18.32-8.81-26.29-17.33-2.65-2.83-5.14-5.49-7.72-7.86-.59-.64-1.32-.96-2.21-.96-.27,0-.55.03-.86.08-2.97.42-6.96,2.35-11.17,4.39-4.06,1.96-8.26,3.99-11.41,4.54l-.72.13-.04.72c-.25,3.5-.22,7.19-.21,11.1.06,16.36.11,33.28-18.26,37.46-4.44,1.02-17.26,1.68-32.63,1.68s-28.19-.66-32.64-1.68c-9.01-2.06-15.01-8.37-17.23-18l18.79-19.25v17.8h61.36v-41.01c0-2.71,16.29-8.25,21.65-10.08,1.87-.64,3.35-1.15,4.17-1.48,1.99-.79,4.2-1.9,6.54-3.08,5.3-2.66,11.33-5.69,16.22-5.69.58,0,1.15.04,1.68.13l30.23,29.32,42.62-42.53.56-2.81-.28-.34c-3.25-3.93-7.55-7.79-11.7-11.54-4.78-4.32-9.72-8.77-13.04-13.29-1.33-1.81-3.56-5.38-3.56-8.99,0-1.62,3.51-8.63,6.07-13.74,1.86-3.72,3.62-7.24,4.34-9.17.84-2.2,1.54-4.98,2.24-7.66.83-3.25,1.7-6.62,2.73-8.76.34-.69,3.97-4.7,4.97-5.49h40.24c.86,0,2.52-1.99,2.65-2.81l.02-.13-.02-.12c-.98-8.6-.68-17.7-.38-26.52.26-7.67.53-15.6-.07-23.12l-.04-.49c-.34-4.33-.65-8.41-6.17-8.99-2.42-.26-5.07-.39-8.13-.39-3.31,0-6.74.15-10.06.29-3.33.15-6.79.29-10.12.29-3.78,0-7.01-.19-9.87-.59-4.03-2.73-4.93-6.49-5.99-10.83-.42-1.73-.86-3.53-1.52-5.35-1.36-3.65-2.59-6.93-3.99-10.12-.73-1.64-1.81-3.58-2.95-5.61-3.34-5.96-7.5-13.35-5.02-17.89l27.43-27.28.92-3.11-43.51-42.95-29.11,28.24c-1.59.91-4.98,1.79-6.61,1.86-1.16,0-3.37-.81-5.85-1.9-2.49-1.11-5.28-2.49-7.63-3.67-2.56-1.27-4.76-2.37-6.25-2.97-1.59-.64-3.66-1.27-6.05-2.01-7.72-2.38-18.28-5.64-19.03-11.26-.77-5.84-.41-12.72-.06-19.38.34-6.32.68-12.85.08-18.64l-.02-.21-2.01-3.12h-56.96l-.21.12c-1.78,1-1.97,2.49-2.15,3.95-.76,5.85-.42,12.41-.1,18.77.36,6.87.72,13.95-.26,20.25-3.8,4.67-9.6,6.43-15.72,8.3-2.4.73-4.9,1.48-7.25,2.43-1.74.7-3.98,1.87-6.34,3.1-5.42,2.82-12.18,6.33-16.85,6.33-1.12,0-2.07-.2-2.83-.62l-30.17-29.47-43.96,43.8,27.87,27.89c4.75,6.25,1.1,12.28-2.78,18.65-1.27,2.1-2.59,4.28-3.53,6.42-1.36,3.1-2.48,7.02-3.57,10.81-1.25,4.41-2.44,8.57-3.91,11.35-.34.56-3.27,3.57-4.03,4.14-2.75.42-5.88.64-9.56.64s-7.19-.19-10.75-.37c-3.51-.18-7.15-.37-10.6-.37-3.1,0-5.77.15-8.15.46-1.46.18-2.96.37-3.97,2.15l-.11.21-.23,56.84.04.15c.84,2.44,2.74,2.68,4.27,2.89,2.43.32,5.18.48,8.41.48,3.69,0,7.59-.2,11.37-.4,3.04-.17,6.17-.32,9.2-.38l-17.21,19.32c-.94.01-1.87.02-2.78.02-16.1,0-30.7-1.95-32.32-25.41-.86-12.48-1.54-47.35,1.05-58.22,3.46-14.53,14.67-17.51,30.46-17.51,2.44,0,4.91.07,7.3.13,2.4.06,4.67.12,6.91.12,1.71,0,3.2-.04,4.55-.11l.58-.03,10.24-24.51-.37-.44c-3.21-3.76-6.91-7.25-10.5-10.62-12.94-12.19-24.12-22.71-8.3-41.08,6.81-7.9,14.92-15.32,22.76-22.5,6.84-6.26,13.92-12.75,20.13-19.55,4.25-3.04,8.28-4.52,12.32-4.52,9.79,0,17.89,8.8,25.72,17.3,3.11,3.38,6.04,6.55,9.06,9.2l.16.13,2.83.81,22.81-9.44.04-.58c.23-3.72.11-7.78,0-12.08-.46-16.35-.94-33.27,16.72-37.84,4.84-1.25,16.06-1.95,31.58-1.95,11.71,0,22.12.4,27.23.79,25.33,1.95,24.94,20.29,24.54,39.71-.08,3.74-.17,7.59-.06,11.33v.62s24.42,9.49,24.42,9.49l.41-.35c3.16-2.58,6.33-5.93,9.67-9.48,7.85-8.32,16.73-17.74,27.01-17.74,3.14,0,6.35.88,9.54,2.63,7.66,4.19,38.77,35.83,46.38,44.88,14.66,17.46,3.98,27.69-8.39,39.54-3.98,3.8-8.1,7.74-11.33,12.01l-.32.41,9.47,23.85h.62c.77.02,1.53.03,2.3.03,2.45,0,4.94-.06,7.36-.11,2.37-.04,4.81-.1,7.17-.1,14.23,0,28.58,1.59,34.28,20.49-.81,9.1-.35,19.19.09,28.94.5,11.12,1.02,22.61-.32,32.63Z"/>
    <path class="cls-1" d="M724.14,423.06l.11-.1.1-.1,1.96-2.01-2.17,2.21Z"/>
    <path class="cls-1" d="M724.14,423.06l.11-.1.1-.1,1.96-2.01-2.17,2.21Z"/>
  </g>
  <g>
    <path class="cls-1" d="M230.98,624.07l-.39-.42.38.42-8.14,22.14,8.15-22.14ZM217.73,572.14c-.6.67-1.19,1.34-1.78,2.02.59-.67,1.19-1.34,1.79-2.01.3-.34.6-.68.92-1.02-.31.34-.63.67-.93,1.01ZM180.52,711.34h-.01c.03.32.06.64.09.94-.02-.3-.06-.62-.08-.94ZM181.07,716.38c.3,2.09.73,3.96,1.25,5.65-.53-1.69-.94-3.56-1.25-5.65ZM180.87,714.77c-.08-.7-.16-1.49-.25-2.34.08.86.16,1.63.23,2.34.07.55.13,1.08.21,1.61-.07-.53-.13-1.06-.2-1.61ZM179.56,663.4c-.28,1.44-.47,3.35-.59,5.6.13-2.25.32-4.16.6-5.6.09-.48.19-.95.3-1.4-.12.45-.22.92-.31,1.4Z"/>
    <path class="cls-1" d="M303.11,640.73l8.42-9.45c-3.09,2.91-5.9,6.08-8.42,9.45Z"/>
    <path class="cls-1" d="M303.11,640.73l8.42-9.45c-3.09,2.91-5.9,6.08-8.42,9.45Z"/>
  </g>
  <line class="cls-1" x1="71.94" y1="496.53" x2="71.35" y2="492.29"/>
  <line class="cls-1" x1="602.37" y1="304.63" x2="599.33" y2="308.05"/>
  <path class="cls-1" d="M322.34,646.85l-1.33,1.49h-.01c.44-.5.88-1.01,1.34-1.49Z"/>
  <path class="cls-1" d="M406.18,722.72c-1.15,1.32-2.36,2.58-3.62,3.79l3.62-3.79Z"/>
  <polygon class="cls-1" points="726.31 420.85 724.35 422.86 724.25 422.96 724.14 423.06 726.31 420.85"/>
  <path class="cls-1" d="M999.74,500c0,67.5-13.23,132.98-39.31,194.63-25.17,59.53-61.22,112.99-107.15,158.92-45.92,45.91-99.38,81.96-158.91,107.16-61.66,26.07-127.14,39.29-194.63,39.29s-132.98-13.22-194.63-39.29c-59.54-25.2-113.01-61.25-158.92-107.16-45.92-45.93-81.97-99.4-107.15-158.92l-.15-.36c-.83-1.96-1.66-3.93-2.45-5.9l-.47-.96v-.27c-.92-2.59-1.33-5.35-1.22-8.21.22-6.06,1.77-14.92,7.85-22.66,3.01-3.84,8.44-8.92,17.37-11.71l.58-.65h1.93c1.14-.22,2.77-.44,4.82-.44,3.8,0,7.84.69,11.99,2.07l.21.08.16.04,87.97,29.12c-.02,1.9-.01,3.88.02,5.9.11,6.99.48,14.48.89,20.88.16,2.16.3,4.18.45,6.03l-71.24-23.09-29.62-9.61c-.37.2-.66.41-.86.64l-.17.21c-.3.47-.57,1.15-.76,1.97.16.59.39,1.46.64,2.29,73.22,175.37,243.04,288.68,432.76,288.68h.65c255.48-.35,465.43-208.44,468.03-463.87,1.26-125.21-47.13-243.76-136.27-333.83C743.03,80.96,625.03,31.34,499.88,31.3h-.16C254.07,31.3,48.67,223.15,32.12,468.06c-.07.92-.13,1.81-.18,2.72l-.02.26c-.06.92-.11,1.82-.16,2.74v.17c-.03.34-.04.67-.07,1.01,0,0-.08,1.35-.09,1.73.06.19.12.38.19.55l39.35,13.6,13.92,4.81,42.71,14.75,97.52,37.91s-.02.01-.02.01l-1.93,1.93c-.79.79-1.6,1.6-2.4,2.4-4.91,4.93-9.87,10-14.45,15.35-1.11,1.31-2.19,2.62-3.25,3.96-.17.21-.34.42-.48.64l-94.52-34.79-75.36-25.63-.92-.3-9.33-3.18h-.39l-1.2-.59c-6.41-3.2-11.47-7.59-15.06-13.04-3.5-5.33-5.42-11.25-5.71-17.59v-.55c.09-2.16.2-4.29.35-6.45,3.28-57.02,16.2-112.59,38.43-165.11,25.17-59.53,61.23-112.99,107.15-158.92,45.93-45.92,99.4-81.97,158.92-107.13C366.76,13.22,432.24,0,499.74,0s132.98,13.22,194.63,39.31c59.53,25.17,112.99,61.22,158.91,107.13,45.93,45.93,81.97,99.4,107.15,158.92,26.08,61.65,39.31,127.13,39.31,194.63Z"/>
  <path class="cls-1" d="M218.66,571.14c-.31.34-.62.68-.92,1.02-.6.67-1.2,1.34-1.79,2.01.59-.68,1.17-1.35,1.78-2.02.3-.34.62-.67.93-1.01Z"/>
  <path class="cls-1" d="M218.66,571.14c-.31.34-.62.68-.92,1.02h-.01c.3-.35.62-.68.93-1.02Z"/>
  <polygon class="cls-1" points="197.53 717.02 196.49 690.18 197.51 716.09 197.53 717.02"/>
  <g>
    <path class="cls-1" d="M230.98,624.07l-.39-.42.38.42-8.14,22.14,8.15-22.14ZM217.73,572.14c-.6.67-1.19,1.34-1.78,2.02.59-.67,1.19-1.34,1.79-2.01.3-.34.6-.68.92-1.02-.31.34-.63.67-.93,1.01ZM180.52,711.34h-.01c.03.32.06.64.09.94-.02-.3-.06-.62-.08-.94ZM181.07,716.38c.3,2.09.73,3.96,1.25,5.65-.53-1.69-.94-3.56-1.25-5.65ZM180.87,714.77c-.08-.7-.16-1.49-.25-2.34.08.86.16,1.63.23,2.34.07.55.13,1.08.21,1.61-.07-.53-.13-1.06-.2-1.61ZM179.56,663.4c-.28,1.44-.47,3.35-.59,5.6.13-2.25.32-4.16.6-5.6.09-.48.19-.95.3-1.4-.12.45-.22.92-.31,1.4Z"/>
    <path class="cls-1" d="M548.08,704.46c-1.67,18.2-20.83,18.63-36.23,18.99-2.51.06-4.88.11-7.07.23l-.63.03-7.46,22.06.38.4c2.45,2.66,5.42,5.24,8.57,7.98,11.16,9.72,22.7,19.76,12.49,34.25-5.24,7.47-12.84,14.94-20.19,22.18-6.56,6.46-13.34,13.15-18.5,19.85-3.79,2.76-7.45,4.09-11.16,4.09h-.01c-8.57,0-15.98-7.26-23.14-14.28-2.44-2.38-4.74-4.64-7.1-6.63-.54-.53-1.16-.78-1.91-.78-.27,0-.55.02-.91.1-2.64.49-6.08,2.34-9.73,4.31-3.51,1.89-7.13,3.84-9.86,4.44l-.72.16v.73c-.09,3.1.06,6.36.22,9.82.67,14.38,1.36,29.27-14.59,33.64-6.26,1.71-29.69,3.1-44.92,3.1-6.07,0-10.45-.21-12.63-.62-9.41-1.71-15.35-8.76-16.76-19.82-.15-1.15-.2-3.85-.28-6.97-.26-11.17-.57-15.31-1.78-16.23l-.11-.09-21.72-7.6-.4.38c-2.49,2.29-4.98,5.14-7.6,8.17-6.68,7.68-14.25,16.38-23.13,16.38-3.33,0-6.62-1.16-10.06-3.56-7.68-5.35-15.44-13.24-22.94-20.88-6.72-6.83-13.65-13.9-20.58-19.18-8.31-13.07.26-21.86,9.34-31.17,3.44-3.53,7.01-7.19,9.51-11.05l.27-.41-5.86-13.57-3.44-7.97h-.63c-3.32.08-6.7.29-9.98.5-1.21.08-2.38.16-3.55.23-1.71.1-3.38.18-5.02.21-.82.03-1.62.04-2.42.04-10.18,0-18.03-2.04-22.15-10.47-.35-.69-.66-1.44-.95-2.24-.16-.4-.29-.81-.43-1.23-.53-1.69-.94-3.56-1.25-5.65-.07-.53-.13-1.06-.2-1.61-.08-.7-.16-1.49-.25-2.34-.01-.04-.02-.1-.02-.16-.02-.3-.06-.62-.08-.94h-.01c-.09-.88-.17-1.83-.25-2.84-.02-.34-.06-.67-.08-1.02-.07-.7-.12-1.44-.18-2.19-.01-.08-.01-.16-.02-.23-.04-.72-.1-1.45-.15-2.21-.4-5.68-.76-12.21-.94-18.42-.06-2.02-.09-4.01-.1-5.93-.03-3.5.01-6.75.17-9.49.13-2.25.32-4.16.6-5.6.09-.48.19-.95.3-1.4.12-.46.23-.89.37-1.32.09-.29.19-.57.29-.84.09-.28.2-.55.31-.82.09-.26.2-.5.31-.75.1-.22.2-.42.3-.64.12-.23.25-.47.37-.69.15-.26.29-.51.45-.76.18-.28.36-.55.55-.82.35-.48.72-.94,1.11-1.38,6.2-6.92,17.33-7.11,28.18-7.3,3.59-.07,6.98-.12,10.13-.42l.58-.06,8.15-22.14-.39-.42c-2.99-3.2-6.4-6.14-9.68-8.99-11.84-10.21-22.06-19.04-8.88-35.76.58-.74,1.19-1.48,1.8-2.21.12-.16.26-.31.39-.48.57-.67,1.15-1.35,1.73-2.02.59-.67,1.19-1.34,1.79-2.01.3-.34.6-.68.92-1.02.46-.51.94-1.03,1.41-1.54,3.63-3.89,7.45-7.71,11.18-11.44l1.17-1.17c.6-.6,1.22-1.22,1.83-1.83.79-.81,1.6-1.61,2.4-2.43.02-.02.06-.06.09-.09,1.95-1.98,3.89-3.99,5.78-6.03.21-.23.44-.46.65-.69,1.74-1.89,3.46-3.8,5.08-5.75,1.23-.96,2.44-1.77,3.66-2.42,2.54-1.35,5.04-2.02,7.59-2.02,8.32,0,15.61,7.25,22.66,14.26,2.87,2.86,5.58,5.56,8.35,7.78l.16.12,2.59.62,19.87-9.25v-.57c.07-3.3-.18-6.87-.46-10.65-1.03-14.38-2.09-29.26,13.24-33.94,7.5-2.29,31.44-3.33,46.03-3.33,2.26,0,4.27.02,5.79.08,13.73.46,19.13,6.54,21.36,15.27l-16.28,18.27c.02-4.54-.06-9.08-.66-13.18l-.03-.22-1.96-2.75-50.32,2.18-.21.12c-1.58.97-1.69,2.35-1.8,3.67-.45,5.19.1,10.98.64,16.6.57,6.01,1.15,12.23.55,17.81-3.16,4.22-8.19,5.98-13.51,7.85-2.09.74-4.26,1.5-6.3,2.42-1.52.69-3.44,1.8-5.48,2.97-2.34,1.34-4.95,2.85-7.48,4.04h-.01c-2.7,1.27-5.31,2.19-7.43,2.19-.82,0-1.53-.15-2.12-.42l-10.79-9.67h-.01l-17-15.23-.56.62-5.29,5.74-3.08,3.34-28.35,30.79h.01l25.72,23.62c.39.48.73.95,1.01,1.43.15.23.27.48.38.72.11.25.21.48.3.73.07.18.12.36.17.54.04.15.09.29.12.44.02.08.03.15.04.21.03.19.07.37.09.55.01.04.02.09.02.13.02.22.04.45.04.66.08,1.86-.41,3.72-1.21,5.61-.18.45-.38.89-.59,1.34-.32.67-.67,1.34-1.03,2.02-.37.67-.74,1.35-1.12,2.05-.26.48-.53.96-.78,1.44-.39.73-.77,1.46-1.13,2.19-.25.49-.47.97-.67,1.45-.11.25-.21.48-.3.73-.27.69-.53,1.43-.76,2.21-.12.38-.25.77-.36,1.17-.35,1.21-.67,2.46-.98,3.74-.21.85-.41,1.7-.62,2.55-.94,3.94-1.83,7.66-3.03,10.17-.28.5-2.67,3.19-3.34,3.75-4.5.91-9.39,1.03-14.02,1.03-1.27,0-2.56-.01-3.84-.02-1.29-.01-2.56-.02-3.82-.02-4.17,0-8.6.1-12.74.82-1,.18-1.99.35-2.77,1.12-.07.06-.13.13-.2.2-.19.22-.36.48-.51.79l-.11.21.91,23.25v.13l1.04,26.84.07.15c.06.13.11.27.17.38.25.48.54.85.85,1.13.88.75,2,.85,2.95.94,1.34.11,2.74.17,4.29.17,4.2,0,8.78-.44,13.19-.86,4.41-.41,8.96-.85,13.12-.85.53,0,1.04.01,1.54.02.49.01.97.03,1.44.06.67.1,2.77,1.79,3.93,3.02.18.19.34.37.46.53.06.08.11.16.16.22.09.15.19.29.28.46.1.16.19.32.28.5.1.17.19.35.28.54.22.44.44.91.66,1.4.16.37.31.74.48,1.13.09.22.18.46.28.7.12.31.25.63.37.94.12.32.23.65.36.98.51,1.36,1.02,2.8,1.52,4.22.81,2.3,1.58,4.51,2.34,6.35.18.44.36.86.54,1.25.65,1.44,1.64,3.2,2.7,5.07,3.05,5.42,7.22,12.83,5.32,16.75l-24.21,27.05,40.45,36.56,24-25.35c1.45-1.04,3.1-1.54,5.02-1.54,2.17,0,4.6.63,7.67,1.97,1.51.66,2.97,1.45,4.53,2.29,2.49,1.36,5.08,2.76,8.23,3.8,2.11.69,4.85,1.26,7.49,1.82,3.13.65,6.37,1.33,8.34,2.17.67.34,4.5,3.68,5.31,4.55l1.55,36,54.35-2.36-1.55-36.29c-.07-1.53,6.17-4.75,18.56-9.58,1.68-.66,3-1.17,3.72-1.5,1.73-.78,3.65-1.85,5.67-2.97,4.74-2.64,10.1-5.63,14.47-5.63.34,0,.67.02,1,.06l27.83,24.77,36.09-39.25.39-2.57-.3-.34c-3.02-3.34-6.97-6.61-10.78-9.76-4.37-3.61-8.89-7.35-11.99-11.19-1.22-1.53-3.3-4.57-3.44-7.74-.07-1.4,2.75-7.69,4.81-12.3,1.51-3.37,2.93-6.54,3.5-8.28.65-1.99,1.17-4.48,1.69-6.89.62-2.89,1.24-5.87,2.06-7.77.28-.65,3.24-4.19,4.12-4.98l35.46-1.53c.84-.06,2.26-1.96,2.33-2.68v-.12s0-.12,0-.12c-1.2-7.54-1.27-15.58-1.35-23.36-.06-6.78-.12-13.79-.94-20.4l-.06-.46c-.47-3.85-.91-7.48-5.89-7.78-1.16-.07-2.36-.11-3.66-.11-.57,0-1.14.01-1.71.02l14.78-15.14c5.55,2.08,10.32,6.34,13.3,14.86-.36,8.07.42,16.95,1.2,25.54.86,9.79,1.76,19.91.95,28.8Z"/>
    <path class="cls-1" d="M303.11,640.73l8.42-9.45c-3.09,2.91-5.9,6.08-8.42,9.45Z"/>
    <path class="cls-1" d="M303.11,640.73l8.42-9.45c-3.09,2.91-5.9,6.08-8.42,9.45Z"/>
  </g>
  <path class="cls-1" d="M406.25,722.66l-.07.07c-1.15,1.32-2.36,2.58-3.62,3.79-18.91,18.05-49.08,21.97-72.48,4.09-10.27-7.84-16.89-17.69-20.24-28.14,1.19,3.8,2.81,7.56,4.88,11.19,7.38,12.96,18.12,21.4,29.95,25.64l.26.09c.63.22,1.26.44,1.9.63,25.14,7.85,54.52-2.8,67.24-29.01-2.16,4.26-4.8,8.16-7.82,11.64Z"/>
  <path class="cls-1" d="M666.01,275.94c-28.25.64-51.32,13.32-66.31,31.84l-.02.02-.35.25-75.99,85.34-15.94,17.89-105.79,118.82-19.36,21.74-38.02,42.7-32.69,36.71h-.01v.02l-8.42,9.45c-20.87,27.82-21.71,69,7.96,98.38,29.84,29.55,73.69,27.06,101.49,3.11h.04s.15-.16.15-.16c2.37-2.07,4.64-4.25,6.74-6.62.04-.04.09-.08.12-.12.01-.01.02-.02.02-.03.7-.77,1.38-1.57,2.04-2.37l78.43-80.34,19.67-20.15,95.2-97.53,21.45-21.97,75.54-77.39,3.02-3.09,9.14-9.37h.01s2.17-2.23,2.17-2.23l-1.96,2.01c1.91-1.78,3.74-3.66,5.48-5.64,8.88-10.01,15.61-22.41,19.1-36.87,12.79-52.97-28.33-105.63-82.92-104.41ZM418.41,699.62c-1.07,3.98-2.51,7.75-4.28,11.25-.02.04-.04.1-.07.15-12.73,26.21-42.1,36.86-67.24,29.01-.64-.19-1.27-.4-1.9-.63l-.26-.09c-11.83-4.24-22.57-12.68-29.95-25.64-2.07-3.63-3.69-7.39-4.88-11.19-.13-.4-.26-.81-.37-1.21-.15-.47-.28-.93-.39-1.4-4.85-18.08-.22-37.6,11.92-51.53.44-.5.88-1.01,1.34-1.49l.19-.2c8.63-9.13,20.68-15.56,35.52-17.1,38.83-4.04,70.64,31.78,60.37,70.07ZM622.42,498.2l-16.25,16.86-108.51,112.67-14.56,15.13-44.53,46.23c2.33-43.22-33.84-81.56-78.43-78.63-1.86.12-3.68.3-5.48.55l8.3-9.2,34.22-37.96,14.33-15.89,105.2-116.69,15.13-16.77,48.89-54.23c-.18,20.2,7.07,41.04,23.5,58.78,19.16,20.68,44.44,28.87,68.65,26.75l-50.46,52.39ZM727.57,379.65c-2.38,7.56-5.95,14.31-10.41,20.17-3.06,4.03-6.55,7.63-10.37,10.76l-.02.02h0c-22.3,18.31-55.65,20.66-80.64-.22-30.66-25.61-29.81-66.75-7.88-91.72l.02-.02.81-.89.06-.07c10.39-11.34,25.26-19.13,43.58-20.24,44.12-2.67,78.36,39.4,64.86,82.22Z"/>
  <path class="cls-1" d="M609.7,495.27l-11.6,12.03-2.47,2.56-5.13-2.05-.42.36c-2.92,2.46-5.87,5.57-8.99,8.87-7.75,8.17-16.54,17.45-26.36,17.45-4.01,0-7.94-1.5-11.97-4.56-8.43-6.42-16.81-15.72-24.92-24.73-7.27-8.07-14.78-16.42-22.38-22.72-1.55-2.71-2.53-5.23-3-7.62l32.53-36.09,11.24-12.46c2.85,5.79,5.64,12.49,3.62,16.22l-28.64,29.34,43.79,43.16,28.32-27.42c1.59-1.03,3.33-1.53,5.33-1.53,2.57,0,5.48.83,9.13,2.62,1.69.82,3.31,1.79,5.02,2.82,2.15,1.3,4.36,2.62,6.89,3.76Z"/>
  <path class="cls-1" d="M490.56,613.05l-.3.42,1.78,3.98-2.44,2.53-10.31,10.71c-.27-.6-.56-1.21-.85-1.8-.7-1.44-1.73-3.12-2.83-4.89-3.15-5.09-7.07-11.41-5.1-15.44l23.17-25.12.72-2.87-40.17-36.36-24.67,26.1c-1.35.85-4.26,1.74-5.68,1.86-.06.01-.1.01-.16.01-2.07,0-7.74-2.54-11.89-4.38-.79-.36-1.54-.69-2.25-1.01l12.77-14.17.91.31.4-.36c2.71-2.4,5.37-5.49,8.2-8.76,6.74-7.81,14.39-16.65,23.72-16.65,2.54,0,5.17.66,7.81,1.96,6.96,3.43,35.56,30.13,42.61,37.8,13.53,14.77,4.53,24.17-5.88,35.05-3.37,3.52-6.86,7.16-9.55,11.07Z"/>
</svg>